<?xml version="1.0" standalone="no"?><!DOCTYPE svg PUBLIC "-//W3C//DTD SVG 1.1//EN" "http://www.w3.org/Graphics/SVG/1.1/DTD/svg11.dtd"><svg t="1547543890412" class="icon" style="" viewBox="0 0 1024 1024" version="1.1" xmlns="http://www.w3.org/2000/svg" p-id="17052" xmlns:xlink="http://www.w3.org/1999/xlink" width="400" height="400"><defs><style type="text/css"></style></defs><path d="M512 512m-512 0a512 512 0 1 0 1024 0 512 512 0 1 0-1024 0Z" fill="#F1DF55" p-id="17053"></path><path d="M455.876923 589.784615c-6.892308-2.953846-15.753846 0.984615-19.692308 7.876923-3.938462 6.892308-1.969231 14.769231 4.923077 17.723077 6.892308 2.953846 16.738462 0 20.676923-7.876923 2.953846-6.892308 0.984615-14.769231-5.907692-17.723077zM410.584615 608.492308c-18.707692-7.876923-42.338462 0-53.16923 17.723077-11.815385 17.723077-5.907692 39.384615 11.815384 47.261538 18.707692 8.861538 43.323077 0 54.153846-17.723077 10.830769-17.723077 4.923077-39.384615-12.8-47.261538z" fill="#FFFFFF" p-id="17054"></path><path d="M426.338462 466.707692C307.2 478.523077 217.6 551.384615 225.476923 629.169231c7.876923 77.784615 110.276923 131.938462 229.415385 120.123077 119.138462-11.815385 208.738462-84.676923 200.861538-162.461539-7.876923-78.769231-110.276923-131.938462-229.415384-120.123077zM530.707692 649.846154c-24.615385 55.138462-93.538462 83.692308-152.615384 64.984615-57.107692-18.707692-81.723077-74.830769-56.123077-126.030769 24.615385-50.215385 88.615385-77.784615 144.738461-63.015385 58.092308 15.753846 88.615385 70.892308 64 124.061539z" fill="#FFFFFF" p-id="17055"></path><path d="M692.184615 490.338462c-9.846154-2.953846-16.738462-4.923077-11.815384-18.707693 11.815385-28.553846 12.8-54.153846 0-71.876923-23.630769-33.476923-86.646154-31.507692-160.492308-0.984615 0 0-22.646154 9.846154-16.738461-7.876923 10.830769-36.430769 9.846154-65.969231-7.876924-83.692308-39.384615-39.384615-144.738462 1.969231-235.323076 91.569231-66.953846 67.938462-106.338462 139.815385-106.338462 201.846154 0 118.153846 151.630769 191.015385 301.292308 191.015384 194.953846 0 324.923077-113.230769 324.923077-202.830769-0.984615-55.138462-46.276923-85.661538-87.63077-98.461538zM454.892308 748.307692c-119.138462 11.815385-221.538462-42.338462-229.415385-120.123077-7.876923-77.784615 82.707692-150.646154 200.861539-162.461538 119.138462-11.815385 221.538462 42.338462 229.415384 120.123077 7.876923 78.769231-82.707692 151.630769-200.861538 162.461538z" fill="#D52B2A" p-id="17056"></path><path d="M822.153846 272.738462c-47.261538-52.184615-116.184615-71.876923-181.169231-58.092308-14.769231 2.953846-24.615385 17.723077-20.676923 32.492308 2.953846 14.769231 17.723077 24.615385 32.492308 20.676923 45.292308-9.846154 94.523077 4.923077 128 41.353846 33.476923 37.415385 42.338462 87.630769 28.553846 131.938461-4.923077 14.769231 2.953846 29.538462 17.723077 34.461539s29.538462-2.953846 34.461539-17.723077c19.692308-62.030769 6.892308-132.923077-39.384616-185.107692z" fill="#E89214" p-id="17057"></path><path d="M738.461538 444.061538c12.8 3.938462 25.6-2.953846 29.538462-14.76923 9.846154-30.523077 3.938462-64.984615-19.692308-90.584616-22.646154-25.6-57.107692-35.446154-87.630769-28.553846-12.8 2.953846-20.676923 15.753846-17.723077 28.553846 2.953846 12.8 15.753846 20.676923 27.569231 17.723077 15.753846-2.953846 31.507692 1.969231 43.323077 13.784616 10.830769 12.8 13.784615 29.538462 9.846154 44.307692-3.938462 11.815385 2.953846 25.6 14.76923 29.538461z" fill="#E89214" p-id="17058"></path><path d="M466.707692 526.769231c-56.123077-14.769231-120.123077 13.784615-144.738461 63.015384-24.615385 51.2-0.984615 107.323077 56.123077 126.03077 59.076923 18.707692 128.984615-9.846154 152.615384-64.984616 24.615385-54.153846-5.907692-109.292308-64-124.061538zM423.384615 655.753846c-11.815385 18.707692-36.430769 26.584615-54.153846 17.723077-18.707692-7.876923-23.630769-29.538462-11.815384-47.261538 11.815385-17.723077 35.446154-25.6 53.16923-17.723077 17.723077 7.876923 23.630769 29.538462 12.8 47.261538z m37.415385-48.246154c-3.938462 6.892308-13.784615 10.830769-20.676923 7.876923-6.892308-2.953846-8.861538-10.830769-4.923077-17.723077s12.8-9.846154 19.692308-7.876923c7.876923 2.953846 9.846154 10.830769 5.907692 17.723077z" fill="#040000" p-id="17059"></path></svg>