<?xml version="1.0" standalone="no"?><!DOCTYPE svg PUBLIC "-//W3C//DTD SVG 1.1//EN" "http://www.w3.org/Graphics/SVG/1.1/DTD/svg11.dtd"><svg t="1547543877388" class="icon" style="" viewBox="0 0 1024 1024" version="1.1" xmlns="http://www.w3.org/2000/svg" p-id="16609" xmlns:xlink="http://www.w3.org/1999/xlink" width="400" height="400"><defs><style type="text/css"></style></defs><path d="M512.2 0.6C229.6 0.6 0.5 229.7 0.5 512.3S229.6 1024 512.2 1024s511.7-229.1 511.7-511.7S794.8 0.6 512.2 0.6z m132.7 341h-48.2c-17.6 0-29.5 3.7-35.6 11.1-6.1 7.4-9.2 18.5-9.2 33.2v58h89.9l-12 90.9h-78v233h-94v-233h-78.3v-90.9h78.3V377c0-38.1 10.6-67.6 31.9-88.6s49.6-31.5 85-31.5h0.2c30.1 0 53.4 1.2 70 3.7v81z" fill="#3162A2" p-id="16610"></path><path d="M551.7 534.8h0.1v233h-0.1zM561 352.7c-6.1 7.4-9.2 18.4-9.2 33.2v58h89.9l-12 90.9h0.1l12-90.9h-89.9v-58c0-14.7 3.1-25.8 9.1-33.2 6.2-7.4 18.1-11.1 35.7-11.1h-0.1c-17.6 0-29.5 3.7-35.6 11.1zM574.9 256.9c30 0 53.3 1.2 69.8 3.7v81h0.2v-81c-16.6-2.5-39.9-3.7-70-3.7z" fill="#FFFFFF" p-id="16611"></path></svg>