<?xml version="1.0" standalone="no"?><!DOCTYPE svg PUBLIC "-//W3C//DTD SVG 1.1//EN" "http://www.w3.org/Graphics/SVG/1.1/DTD/svg11.dtd"><svg t="1559281361864" class="icon" style="" viewBox="0 0 1024 1024" version="1.1" xmlns="http://www.w3.org/2000/svg" p-id="2715" xmlns:xlink="http://www.w3.org/1999/xlink" width="400" height="400"><defs><style type="text/css"></style></defs><path d="M512 512m-512 0a512 512 0 1 0 1024 0 512 512 0 1 0-1024 0Z" fill="#FBD971" p-id="2716"></path><path d="M512 877.714286c-161.328762 0-292.571429-131.242667-292.571429-292.571429a24.380952 24.380952 0 0 1 48.761905 0c0 134.436571 109.372952 243.809524 243.809524 243.809524s243.809524-109.372952 243.809524-243.809524a24.380952 24.380952 0 0 1 48.761905 0c0 161.328762-131.242667 292.571429-292.571429 292.571429z" fill="#F0C419" p-id="2717"></path><path d="M390.095238 414.47619a24.380952 24.380952 0 0 1-24.380952-24.380952c0-40.326095-32.816762-73.142857-73.142857-73.142857s-73.142857 32.816762-73.142858 73.142857a24.380952 24.380952 0 0 1-48.761904 0c0-67.218286 54.686476-121.904762 121.904762-121.904762s121.904762 54.686476 121.904761 121.904762a24.380952 24.380952 0 0 1-24.380952 24.380952zM828.952381 414.47619a24.380952 24.380952 0 0 1-24.380952-24.380952c0-40.326095-32.816762-73.142857-73.142858-73.142857s-73.142857 32.816762-73.142857 73.142857a24.380952 24.380952 0 0 1-48.761904 0c0-67.218286 54.686476-121.904762 121.904761-121.904762s121.904762 54.686476 121.904762 121.904762a24.380952 24.380952 0 0 1-24.380952 24.380952z" fill="#F29C1F" p-id="2718"></path></svg>