<?xml version="1.0" standalone="no"?><!DOCTYPE svg PUBLIC "-//W3C//DTD SVG 1.1//EN" "http://www.w3.org/Graphics/SVG/1.1/DTD/svg11.dtd"><svg t="1547543870835" class="icon" style="" viewBox="0 0 1024 1024" version="1.1" xmlns="http://www.w3.org/2000/svg" p-id="16387" xmlns:xlink="http://www.w3.org/1999/xlink" width="400" height="400"><defs><style type="text/css"></style></defs><path d="M512 1024C228.894118 1024 0 795.105882 0 512S228.894118 0 512 0s512 228.894118 512 512-228.894118 512-512 512" fill="#3296FA" p-id="16388"></path><path d="M733.866667 381.490196c-19.07451-8.031373-158.619608-58.227451-213.835294-79.309804C404.580392 261.019608 272.062745 197.772549 250.980392 187.733333c-3.011765-2.007843-7.027451-1.003922-10.039216 1.003922-3.011765 2.007843-3.011765 4.015686-4.015686 6.023529-7.027451 45.176471 12.047059 122.478431 49.192157 155.607843 18.070588 16.062745 253.992157 89.34902 253.992157 89.34902S291.137255 383.498039 286.117647 383.498039c-4.015686 0-6.023529 0-9.035294 3.011765-2.007843 2.007843-3.011765 5.019608-3.011765 9.035294 9.035294 50.196078 56.219608 115.45098 98.384314 123.482353 34.133333 7.027451 170.666667 2.007843 170.666667 2.007843s-165.647059 23.090196-169.662745 24.094118c-4.015686 1.003922-6.023529 3.011765-7.027451 5.019608-1.003922 2.007843-2.007843 5.019608 0 9.035294 7.027451 15.058824 29.113725 37.145098 29.113725 37.145098 45.176471 46.180392 94.368627 40.156863 106.415686 38.149019 12.047059-2.007843 44.172549-12.047059 59.231373-20.078431l-27.105882 99.388235 82.321568 1.003922-49.192157 157.615686 178.698039-225.882353h-87.341176S740.894118 510.996078 765.992157 461.803922c7.027451-13.05098 10.039216-32.12549 5.019608-46.180393-6.023529-14.054902-16.062745-25.098039-37.145098-34.133333" fill="#FFFFFF" p-id="16389"></path></svg>